# xmcd
#
# Track frame offsets:
#	150
#	12535
#	24212
#
# Disc length: 445 seconds
#
# Revision: 0
# Processed by: cddbd v1.4PL0 Copyright (c) Steve Scherf et al.
# Submitted via: EasyCDDAExtractor 4.6.0.1
#
DISCID=1701bb03
DTITLE=Patsy Cline - Crazy
DYEAR=1990
DGENRE=Country
TTITLE0=Crazy
TTITLE1=Sweet Dreams
TTITLE2=Walking After Midnight
EXTD=
EXTT0=
EXTT1=
EXTT2=
PLAYORDER=
